<svg id="_圖層_1-2" xmlns="http://www.w3.org/2000/svg" width="15" height="15" viewBox="0 0 15 15">
  <circle id="椭圆_12" data-name="椭圆 12" cx="7.5" cy="7.5" r="7.5" fill="#00b900"/>
  <path id="路径_179" data-name="路径 179" d="M23.905,20.7l-.685-.6a.79.79,0,0,0-1.117.072L18.29,24.5l-2.006-1.766a.79.79,0,0,0-1.117.072l-.6.685a.79.79,0,0,0,.072,1.117l3.293,2.9a.79.79,0,0,0,1.117-.072l.6-.685a.758.758,0,0,0,.065-.09l4.261-4.847A.79.79,0,0,0,23.9,20.7Z" transform="translate(-11.772 -16.302)" fill="#fff"/>
</svg>
