<svg id="rock" xmlns="http://www.w3.org/2000/svg" width="12" height="16" viewBox="0 0 12 16">
  <polygon fill="#4d4d4d" points=".86 8.53 0 10 1.68 10.28 1.67 10.28 1.87 8.44 .86 8.53"/>
  <path fill="#4d4d4d" d="m9.92,6.43v-.04c.03-.07.04-.14.06-.22C10.57,3.11,9.46.36,7.51.03S3.5,1.92,2.92,4.98c-.01.07-.03.15-.04.22v.05c-.06.37-.09.75-.11,1.13l-.4,4.23h0s6.05,1.02,6.05,1.02l1.18-4.1c.13-.36.24-.72.32-1.09Zm-1.63-2.05c-.17.85-1.02,1.42-1.91,1.27,0,0,0,0-.01,0-.89-.14-1.49-.94-1.34-1.79.17-.85,1.02-1.42,1.91-1.27,0,0,.01,0,.02,0,.89.14,1.49.94,1.34,1.79Z"/>
  <polygon fill="#4d4d4d" points="10.58 10.17 9.67 9.75 9.17 11.54 10.84 11.83 10.58 10.17"/>
  <path fill="#4d4d4d" d="m5.32,11.79c-1.33-.23-1.65.59-1.67.96.24,1.01.54,2.01.91,2.99.67-.79,1.28-1.63,1.82-2.5h0c.07-.36.27-1.22-1.06-1.45Z"/>
  <polygon fill="#4d4d4d" points="9.17 11.54 9.17 11.54 9.16 11.54 9.17 11.54"/>
</svg>