<svg id="cs_icon3" xmlns="http://www.w3.org/2000/svg" width="16.522" height="15.3" viewBox="0 0 16.522 15.3">
  <g id="组_102" data-name="组 102">
    <path id="路径_151" data-name="路径 151" d="M11.417,13.149a2.958,2.958,0,0,0,2.954-2.954V2.954A2.958,2.958,0,0,0,11.417,0H2.954A2.958,2.958,0,0,0,0,2.954v7.24a2.958,2.958,0,0,0,2.954,2.954Zm-9.95-2.954V2.954A1.49,1.49,0,0,1,2.954,1.466h8.462A1.49,1.49,0,0,1,12.9,2.954v7.24a1.49,1.49,0,0,1-1.488,1.488H2.954a1.49,1.49,0,0,1-1.488-1.488Z" fill="#4d4d4d"/>
    <path id="路径_152" data-name="路径 152" d="M38.184,32.289h5.67a.684.684,0,0,0,0-1.369h-5.67a.684.684,0,0,0,0,1.369Z" transform="translate(-33.834 -27.897)" fill="#4d4d4d"/>
    <path id="路径_153" data-name="路径 153" d="M38.184,61.789h5.67a.684.684,0,0,0,0-1.369h-5.67a.684.684,0,0,0,0,1.369Z" transform="translate(-33.834 -54.513)" fill="#4d4d4d"/>
    <path id="路径_154" data-name="路径 154" d="M38.184,91.289h5.67a.684.684,0,1,0,0-1.369h-5.67a.684.684,0,1,0,0,1.369Z" transform="translate(-33.834 -81.129)" fill="#4d4d4d"/>
    <path id="路径_155" data-name="路径 155" d="M36.691,24.36a3.347,3.347,0,0,1,.05.573V26.2a1.475,1.475,0,0,1,.293.883v5.532a3.2,3.2,0,0,1-3.2,3.2H27.084a1.475,1.475,0,0,1-.883-.293H24.933a3.356,3.356,0,0,1-.573-.05,2.957,2.957,0,0,0,2.724,1.81h7.309A4.108,4.108,0,0,0,38.5,33.17V27.084A2.961,2.961,0,0,0,36.691,24.36Z" transform="translate(-21.979 -21.979)" fill="#4d4d4d"/>
  </g>
</svg>
