<svg id="cs_icon8" xmlns="http://www.w3.org/2000/svg" width="12.625" height="13.694" viewBox="0 0 12.625 13.694">
  <g id="组_105" data-name="组 105">
    <path id="路径_163" data-name="路径 163" d="M10.7,3.694a4.448,4.448,0,0,0-8.768,0A2.806,2.806,0,0,0,0,6.356v4.535a2.806,2.806,0,0,0,2.8,2.8h7.02a2.806,2.806,0,0,0,2.8-2.8V6.356A2.806,2.806,0,0,0,10.7,3.694Zm-4.384-2.2A2.961,2.961,0,0,1,9.131,3.554H3.494A2.961,2.961,0,0,1,6.313,1.491Zm4.821,9.4A1.313,1.313,0,0,1,9.823,12.2H2.8a1.313,1.313,0,0,1-1.311-1.311V6.356A1.313,1.313,0,0,1,2.8,5.045h7.02a1.313,1.313,0,0,1,1.311,1.311Z" fill="#4d4d4d"/>
    <path id="路径_164" data-name="路径 164" d="M48.841,63.25a1.589,1.589,0,0,0-.7,3.019v.957a.7.7,0,0,0,1.392,0v-.957a1.589,1.589,0,0,0-.7-3.019Z" transform="translate(-42.553 -56.962)" fill="#4d4d4d"/>
  </g>
</svg>
