<svg id="cs_icon9" xmlns="http://www.w3.org/2000/svg" width="15.376" height="13.148" viewBox="0 0 15.376 13.148">
  <path id="路径_165" data-name="路径 165" d="M30.536,37.336a2.308,2.308,0,1,0-3.369,0,3.28,3.28,0,0,0-1.158,2.545,3.507,3.507,0,0,0,.086.771l.023.1h5.468l.023-.1a3.5,3.5,0,0,0,.086-.771,3.278,3.278,0,0,0-1.158-2.545Zm-.853-.416a1.426,1.426,0,0,1-1.665,0,1.43,1.43,0,1,1,1.665,0Zm-1.7.917a1.713,1.713,0,0,1,1.744,0,2.331,2.331,0,0,1,1.092,2.037H26.887A2.33,2.33,0,0,1,27.979,37.837Z" transform="translate(-23.738 -30.528)" fill="#4d4d4d"/>
  <path id="路径_166" data-name="路径 166" d="M12.735,13.148H2.64A2.643,2.643,0,0,1,0,10.508V2.64A2.643,2.643,0,0,1,2.64,0h10.1a2.643,2.643,0,0,1,2.64,2.64v7.868a2.643,2.643,0,0,1-2.64,2.64ZM2.64,1.31A1.331,1.331,0,0,0,1.31,2.64v7.868a1.331,1.331,0,0,0,1.33,1.33h10.1a1.331,1.331,0,0,0,1.33-1.33V2.64a1.331,1.331,0,0,0-1.33-1.33H2.64Z" fill="#4d4d4d"/>
  <rect id="矩形_110" data-name="矩形 110" width="4.019" height="1.223" rx="0.612" transform="translate(8.867 3.4)" fill="#4d4d4d"/>
  <rect id="矩形_111" data-name="矩形 111" width="4.019" height="1.223" rx="0.612" transform="translate(8.867 5.977)" fill="#4d4d4d"/>
  <rect id="矩形_112" data-name="矩形 112" width="4.019" height="1.223" rx="0.612" transform="translate(8.867 8.554)" fill="#4d4d4d"/>
</svg>
