<svg id="cs_icon7" xmlns="http://www.w3.org/2000/svg" width="12.252" height="13.761" viewBox="0 0 12.252 13.761">
  <g id="组_104" data-name="组 104">
    <path id="路径_159" data-name="路径 159" d="M9.489,0H2.763A2.767,2.767,0,0,0,0,2.763V11a2.767,2.767,0,0,0,2.763,2.763H9.489A2.767,2.767,0,0,0,12.252,11V2.763A2.767,2.767,0,0,0,9.489,0ZM1.372,11V2.763A1.393,1.393,0,0,1,2.763,1.372H9.489a1.393,1.393,0,0,1,1.392,1.392V9.456H8.774a.686.686,0,0,0-.686.686v2.247H2.763A1.393,1.393,0,0,1,1.372,11Zm8.117,1.392H9.46V10.828h1.421V11A1.393,1.393,0,0,1,9.489,12.389Z" fill="#4d4d4d"/>
    <path id="路径_160" data-name="路径 160" d="M31.64,32.2h5.3a.64.64,0,1,0,0-1.28h-5.3a.64.64,0,0,0,0,1.28Z" transform="translate(-28.166 -28.093)" fill="#4d4d4d"/>
    <path id="路径_161" data-name="路径 161" d="M31.64,61.7h5.3a.64.64,0,1,0,0-1.28h-5.3a.64.64,0,1,0,0,1.28Z" transform="translate(-28.166 -54.896)" fill="#4d4d4d"/>
    <path id="路径_162" data-name="路径 162" d="M34.762,89.92H31.47a.64.64,0,1,0,0,1.28h3.292a.64.64,0,1,0,0-1.28Z" transform="translate(-28.011 -81.698)" fill="#4d4d4d"/>
  </g>
</svg>
