<svg id="cs_icon5" xmlns="http://www.w3.org/2000/svg" width="15.747" height="15.747" viewBox="0 0 15.747 15.747">
  <g id="组_106" data-name="组 106">
    <path id="路径_167" data-name="路径 167" d="M7.874,0a7.874,7.874,0,1,0,7.874,7.874A7.882,7.882,0,0,0,7.874,0Zm0,14.172a6.3,6.3,0,1,1,6.3-6.3A6.307,6.307,0,0,1,7.874,14.172Z" fill="#4d4d4d"/>
    <path id="路径_168" data-name="路径 168" d="M38.526,60.358a.318.318,0,0,0-.42.107,6.913,6.913,0,0,1-1.4,1.445c-.308.239-.345.52-.028.767a.607.607,0,0,0,.886-.115,5.526,5.526,0,0,0,1.082-1.849C38.7,60.548,38.666,60.416,38.526,60.358Z" transform="translate(-32.63 -53.989)" fill="#4d4d4d"/>
    <path id="路径_169" data-name="路径 169" d="M56.023,41.971a.335.335,0,0,0,.42-.008A4.276,4.276,0,0,0,57.618,40.7h.42a2.87,2.87,0,0,1-2.285,2.509c-.2.066-.252.19-.214.338s.187.231.392.207a3.428,3.428,0,0,0,3-2.006,3.1,3.1,0,0,0,1.6,1.948.646.646,0,0,0,.933-.2c.168-.265.112-.57-.336-.743a2.837,2.837,0,0,1-1.894-1.808c.009-.091.019-.173.019-.248h.84c.084,0,.122.041.093.115a3.677,3.677,0,0,1-.345.562.227.227,0,0,0,.038.346.333.333,0,0,0,.42.025,3.932,3.932,0,0,0,.942-.767.592.592,0,0,0-.009-.957.867.867,0,0,0-.97.041H57.936c.038-.1.075-.19.1-.289a.479.479,0,0,0-.447-.66c-.373-.049-.615.083-.691.4a5.577,5.577,0,0,1-.924,2.08.241.241,0,0,0,.046.372Z" transform="translate(-49.697 -34.999)" fill="#4d4d4d"/>
    <path id="路径_170" data-name="路径 170" d="M45.747,39.5a5.937,5.937,0,0,1,.691.635.511.511,0,0,0,.8.025c.233-.248.187-.512-.159-.693a4.343,4.343,0,0,0-1.016-.429.31.31,0,0,0-.382.115.226.226,0,0,0,.065.346Z" transform="translate(-40.839 -34.92)" fill="#4d4d4d"/>
    <path id="路径_171" data-name="路径 171" d="M43.1,86.271H42.48V84.636c0-.346-.214-.536-.607-.536H36.649c-.392,0-.607.19-.607.536v1.635h-.588c-.233,0-.364.115-.364.331s.13.322.364.322H43.1c.233,0,.363-.115.363-.322A.317.317,0,0,0,43.1,86.271Zm-5.233,0h-.588V84.835a.1.1,0,0,1,.112-.1h.476Zm1.688,0h-.588V84.736h.588Zm1.688,0h-.588V84.736h.476a.1.1,0,0,1,.112.1Z" transform="translate(-31.406 -75.271)" fill="#4d4d4d"/>
    <path id="路径_172" data-name="路径 172" d="M35.851,48.356a9.58,9.58,0,0,1,.765.652.509.509,0,0,0,.8.008c.233-.256.187-.528-.159-.7a5.375,5.375,0,0,0-1.092-.446.326.326,0,0,0-.392.124A.253.253,0,0,0,35.851,48.356Z" transform="translate(-31.979 -42.829)" fill="#4d4d4d"/>
  </g>
</svg>
