<svg id="star" xmlns="http://www.w3.org/2000/svg" width="14" height="15.05" viewBox="0 0 14 15.05">
  <path fill="#4e4d4d" d="m13.69,5.96c.27-.26.37-.64.26-1-.12-.36-.42-.62-.81-.67l-3.38-.48c-.16-.02-.31-.13-.38-.27l-1.51-3C7.72.22,7.39.01,7.02,0c0,0-.02,0-.02,0,0,0-.02,0-.02,0-.37.01-.69.21-.85.54l-1.51,3c-.07.15-.21.24-.38.27l-3.37.48c-.38.05-.69.31-.81.67-.11.36-.02.74.26.99l2.44,2.33c.12.11.17.27.14.43l-.57,3.3c-.05.29.02.57.21.79.3.36.85.45,1.22.25l3.02-1.56c.14-.07.32-.08.47,0l3.02,1.56c.15.07.3.11.46.11.3,0,.58-.13.77-.36.19-.22.26-.5.21-.79l-.57-3.3c-.03-.15.03-.32.14-.43l2.44-2.33Zm-9.49,3c.11-.59-.09-1.2-.54-1.62l-1.91-1.83,2.66-.38c.59-.09,1.11-.46,1.38-.99l1.21-2.4,1.21,2.4c.27.53.79.9,1.38.99l2.66.38-1.91,1.83c-.44.42-.64,1.03-.54,1.62l.46,2.61-2.42-1.25c-.26-.13-.55-.2-.85-.2s-.59.07-.85.2l-2.41,1.25.46-2.6Z"/>
</svg>