<svg id="cs_icon2" xmlns="http://www.w3.org/2000/svg" width="17.225" height="13.675" viewBox="0 0 17.225 13.675">
  <g id="组_101" data-name="组 101">
    <path id="路径_150" data-name="路径 150" d="M13.937,0H3.289A3.294,3.294,0,0,0,0,3.289V8.644a3.294,3.294,0,0,0,3.289,3.29H6.115l.716,1.342a.752.752,0,0,0,.5.38.729.729,0,0,0,.168.019.754.754,0,0,0,.445-.146l2.181-1.6h3.813a3.293,3.293,0,0,0,3.289-3.29V3.289A3.293,3.293,0,0,0,13.936,0Zm1.781,8.645a1.784,1.784,0,0,1-1.781,1.782H9.877a.757.757,0,0,0-.445.146L7.754,11.8l-.52-.974a.755.755,0,0,0-.666-.4H3.289A1.783,1.783,0,0,1,1.508,8.645V3.289A1.783,1.783,0,0,1,3.289,1.508H13.936a1.783,1.783,0,0,1,1.781,1.781V8.644Z" fill="#4d4d4d"/>
    <circle id="椭圆_8" data-name="椭圆 8" cx="1.357" cy="1.357" r="1.357" transform="translate(3.268 4.575)" fill="#4d4d4d"/>
    <circle id="椭圆_9" data-name="椭圆 9" cx="1.357" cy="1.357" r="1.357" transform="translate(7.29 4.575)" fill="#4d4d4d"/>
    <circle id="椭圆_10" data-name="椭圆 10" cx="1.357" cy="1.357" r="1.357" transform="translate(11.312 4.575)" fill="#4d4d4d"/>
  </g>
</svg>
