<svg id="cs_icon1" xmlns="http://www.w3.org/2000/svg" width="15.747" height="15.747" viewBox="0 0 15.747 15.747">
  <g id="组_100" data-name="组 100" transform="translate(5.013 3.285)">
    <path id="路径_147" data-name="路径 147" d="M63.472,95.89a1.193,1.193,0,0,0-1.3,1.119,1.233,1.233,0,0,0,1.3,1.142,1.211,1.211,0,0,0,1.264-1.142A1.183,1.183,0,0,0,63.472,95.89Z" transform="translate(-60.656 -89.109)" fill="#4d4d4d"/>
    <path id="路径_148" data-name="路径 148" d="M52.822,32.023a3.174,3.174,0,0,0-2.338-.725,3.809,3.809,0,0,0-2.421.9.852.852,0,0,0-.314.613.759.759,0,0,0,.258.565.9.9,0,0,0,1.249.005,2.062,2.062,0,0,1,1.12-.454.791.791,0,0,1,.6.2.748.748,0,0,1,.217.547,1.521,1.521,0,0,1-.552,1.08l-.425.467a2.084,2.084,0,0,0-.657,1.548l.025.305c.016.448.344.7.9.7h.04A1.025,1.025,0,0,0,51.3,37.5a.614.614,0,0,0,.147-.482l-.026-.252c-.045-.392.206-.645.747-1.092a2.72,2.72,0,0,0,1.262-2.305,1.881,1.881,0,0,0-.6-1.348Z" transform="translate(-47.749 -31.295)" fill="#4d4d4d"/>
  </g>
  <path id="路径_149" data-name="路径 149" d="M7.873,15.747a7.873,7.873,0,1,1,7.873-7.873A7.882,7.882,0,0,1,7.873,15.747Zm0-14.172a6.3,6.3,0,1,0,6.3,6.3A6.306,6.306,0,0,0,7.873,1.575Z" fill="#4d4d4d"/>
</svg>
