<svg id="cs_icon4" xmlns="http://www.w3.org/2000/svg" width="15.747" height="15.747" viewBox="0 0 15.747 15.747">
  <g id="组_103" data-name="组 103">
    <path id="路径_156" data-name="路径 156" d="M7.873,0a7.873,7.873,0,1,0,7.873,7.873A7.882,7.882,0,0,0,7.873,0Zm0,14.172a6.3,6.3,0,1,1,6.3-6.3A6.306,6.306,0,0,1,7.873,14.172Z" fill="#4d4d4d"/>
    <path id="路径_157" data-name="路径 157" d="M50.906,104.5H46.287a.787.787,0,0,0,0,1.575h4.619a.787.787,0,1,0,0-1.575Z" transform="translate(-40.723 -93.53)" fill="#4d4d4d"/>
    <path id="路径_158" data-name="路径 158" d="M53.091,35.631a.634.634,0,0,0,.953,0l1.877-2.13a.636.636,0,0,0-.477-1.056h-1.09V29.277a.787.787,0,1,0-1.575,0v3.167h-1.09a.636.636,0,0,0-.477,1.056Z" transform="translate(-45.694 -25.499)" fill="#4d4d4d"/>
  </g>
</svg>
