<svg id="_圖層_2-2" xmlns="http://www.w3.org/2000/svg" width="10.481" height="16.166" viewBox="0 0 10.481 16.166">
  <g id="组_121" data-name="组 121">
    <path id="路径_174" data-name="路径 174" d="M9.149,76H1.332a1.332,1.332,0,1,0,0,2.665H9.149a1.332,1.332,0,1,0,0-2.665Z" transform="translate(0 -62.499)" fill="#c1c1c1"/>
    <path id="路径_175" data-name="路径 175" d="M9,12.082a1.073,1.073,0,0,0,1.613,0l3.176-3.6a1.076,1.076,0,0,0-.807-1.787H11.14V1.332a1.332,1.332,0,1,0-2.665,0v5.36H6.632a1.076,1.076,0,0,0-.807,1.787L9,12.084Z" transform="translate(-4.567)" fill="#c1c1c1"/>
  </g>
</svg>
