<svg xmlns="http://www.w3.org/2000/svg" width="15" height="15" viewBox="0 0 15 15">
  <g id="error" transform="translate(-0.192)">
    <circle id="椭圆_13" data-name="椭圆 13" cx="7.5" cy="7.5" r="7.5" transform="translate(0.192)" fill="#d50000"/>
    <path id="路径_180" data-name="路径 180" d="M26.4,24.035,28.2,22.1a.793.793,0,0,0-.042-1.119l-.669-.62a.793.793,0,0,0-1.119.042L24.7,22.2,23.04,20.4a.791.791,0,0,0-1.119-.042l-.669.62a.791.791,0,0,0-.042,1.119L23,24.035l-1.742,1.88a.793.793,0,0,0,.042,1.119l.669.62a.793.793,0,0,0,1.119-.042l1.614-1.74,1.614,1.74a.791.791,0,0,0,1.119.042l.669-.62a.791.791,0,0,0,.042-1.119L26.4,24.035Z" transform="translate(-17.204 -16.508)" fill="#fff"/>
  </g>
</svg>
