<svg xmlns="http://www.w3.org/2000/svg" width="25" height="25" viewBox="0 0 25 25">
  <g id="game_btn_fb" transform="translate(-581 -703)">
    <g id="椭圆_7" data-name="椭圆 7" transform="translate(581 703)" fill="none" stroke="#c1c1c1" stroke-width="1">
      <circle cx="12.5" cy="12.5" r="12.5" stroke="none"/>
      <circle cx="12.5" cy="12.5" r="12" fill="none"/>
    </g>
    <g id="_圖層_2-2" transform="translate(590 708.999)">
      <path id="路径_122" data-name="路径 122" d="M2.113,13.752c0-.058-.007-.115-.007-.174V7.483H0V5.038H2.106V4.865c0-.639-.013-1.281.013-1.919a3.061,3.061,0,0,1,.8-2.052A2.832,2.832,0,0,1,4.434.083,5.829,5.829,0,0,1,5.865.013c.388.014.777.049,1.164.074.03,0,.061.011.1.018v2.18h-.14c-.478.007-.958,0-1.435.024a.865.865,0,0,0-.908.911c-.024.589-.009,1.181-.01,1.771a.15.15,0,0,0,.016.039h2.4c-.105.822-.21,1.626-.314,2.445H4.643c0,.052-.011.091-.011.129v6.053c0,.031,0,.062.007.093Z" transform="translate(0 0)" fill="#c1c1c1"/>
    </g>
  </g>
</svg>
