<svg xmlns="http://www.w3.org/2000/svg" width="25" height="25" viewBox="0 0 25 25">
  <g id="game_btn_home" transform="translate(-552 -703)">
    <g id="组_77" data-name="组 77" transform="translate(191 222.002)">
      <g id="_圖層_2-2" transform="translate(365 486.998)">
        <g id="组_76" data-name="组 76" transform="translate(0 0)">
          <path id="路径_120" data-name="路径 120" d="M17.267,7.077c-.22.267-.44.535-.661.8s-.392.278-.657.056L8.8,1.975c-.052-.043-.1-.085-.17-.137l-.8.666L1.3,7.946a.382.382,0,0,1-.634-.054Q.4,7.576.138,7.259A.379.379,0,0,1,.2,6.628L5.913,1.869C6.535,1.35,7.154.829,7.779.316A1.287,1.287,0,0,1,9.215.141,1.721,1.721,0,0,1,9.586.4c.778.646,1.553,1.3,2.329,1.945.038.031.078.058.137.1,0-.077.009-.13.009-.183V.477c0-.332.114-.445.445-.445h1.838c.342,0,.457.115.457.455,0,1.366,0,2.732,0,4.1a.311.311,0,0,0,.126.27q1.054.868,2.1,1.746a2.314,2.314,0,0,1,.24.274v.2Z" transform="translate(0.003 0)" fill="#c1c1c1"/>
          <path id="路径_121" data-name="路径 121" d="M48.9,48.305l2.85,2.349q1.593,1.314,3.188,2.626a.328.328,0,0,1,.133.285c0,1.642,0,3.282,0,4.924a.709.709,0,0,1-.782.786H50.437c-.05,0-.1,0-.167-.008V55.175H47.523v4.092c-.078,0-.133.008-.188.008H43.507a.711.711,0,0,1-.787-.8q0-2.454,0-4.907a.345.345,0,0,1,.141-.3q2.936-2.413,5.868-4.834c.052-.042.1-.083.167-.133Z" transform="translate(-40.257 -45.525)" fill="#c1c1c1"/>
        </g>
      </g>
    </g>
    <g id="椭圆_6" data-name="椭圆 6" transform="translate(552 703)" fill="none" stroke="#c1c1c1" stroke-width="1">
      <circle cx="12.5" cy="12.5" r="12.5" stroke="none"/>
      <circle cx="12.5" cy="12.5" r="12" fill="none"/>
    </g>
  </g>
</svg>
