<?xml version="1.0" encoding="UTF-8"?>
<svg id="cal" xmlns="http://www.w3.org/2000/svg" viewBox="0 0 20 20">
  <path fill="#999899" d="m17.83,3.53h-1.44v-.84c0-.28-.22-.5-.5-.5s-.5.22-.5.5v.84H4.79v-.84c0-.28-.22-.5-.5-.5s-.5.22-.5.5v.84h-1.62c-.97,0-1.75.79-1.75,1.75v10.78c0,.97.79,1.75,1.75,1.75h15.66c.97,0,1.75-.79,1.75-1.75V5.28c0-.97-.79-1.75-1.75-1.75Zm-15.66,1h1.62v.89c0,.28.22.5.5.5s.5-.22.5-.5v-.89h10.6v.89c0,.28.22.5.5.5s.5-.22.5-.5v-.89h1.44c.42,0,.75.34.75.75v2.05H1.42v-2.05c0-.42.34-.75.75-.75Zm15.66,12.29H2.17c-.42,0-.75-.34-.75-.75v-7.73h17.16v7.73c0,.42-.34.75-.75.75Z"/>
  <path fill="#999899" d="m8.02,9.45h-.68s-.07,0-.11.03l-1.28.69c-.09.05-.14.15-.11.25l.15.6c.02.07.06.12.13.15.06.03.14.03.2,0l.7-.38v4.75c0,.12.1.23.23.23h.77c.12,0,.23-.1.23-.23v-5.86c0-.12-.1-.23-.23-.23Z"/>
  <path fill="#999899" d="m13.05,11.93c-.38-.23-.86-.35-1.38-.35-.08,0-.15,0-.21,0l.15-1.02h2.04c.12,0,.23-.1.23-.23v-.67c0-.12-.1-.23-.23-.23h-2.8c-.11,0-.21.08-.22.2l-.38,2.81c0,.07.03.14.08.19.05.05.14.07.21.06.21-.03.44-.06.74-.06.66,0,1.45.19,1.46,1.07,0,.69-.58,1.04-1.16,1.04-.48,0-.91-.16-1.14-.29-.06-.04-.13-.04-.19-.02-.06.02-.11.08-.13.14l-.2.6c-.03.1,0,.2.09.26.3.19.87.4,1.58.4,1.39,0,2.41-.94,2.41-2.22,0-.74-.35-1.36-.95-1.7Z"/>
  <path fill="#999899" d="m8.56,6.94c.29,0,.53-.1.7-.29.17-.19.26-.44.26-.75,0-.29-.09-.53-.25-.71-.17-.19-.4-.29-.68-.29-.3,0-.54.1-.72.3-.17.19-.26.44-.26.75,0,.29.09.53.26.72.18.19.41.29.69.29Zm-.22-1.34c.06-.07.13-.1.23-.1.13,0,.19.05.23.09.06.07.09.18.09.33s-.03.25-.09.32c-.04.04-.1.09-.24.09-.09,0-.16-.03-.22-.1-.06-.08-.1-.18-.1-.32s.03-.24.1-.32Z"/>
  <path fill="#999899" d="m10.47,6.94c.16,0,.3-.04.42-.11.07-.04.11-.11.11-.19v-.17c0-.08-.05-.16-.12-.2-.07-.04-.17-.03-.23.02-.11.08-.22.05-.25.01-.03-.03-.05-.09-.05-.16,0-.11.04-.16.05-.17.06-.07.16-.07.25,0,.07.05.16.05.23.02.07-.04.12-.11.12-.2v-.18c0-.09-.05-.16-.13-.2-.29-.14-.71-.08-.93.16-.14.15-.22.35-.22.59,0,.22.07.41.21.55.14.15.33.22.54.22Z"/>
  <path fill="#999899" d="m11.32,5.96v.44c0,.34.2.55.51.55.11,0,.2-.02.27-.06.07-.04.11-.11.11-.19v-.15c0-.08-.04-.17-.12-.2-.05-.03-.11-.03-.16-.02v-.35h.06c.12,0,.22-.1.22-.22v-.15c0-.12-.1-.22-.22-.22h-.06v-.11c0-.07-.03-.14-.09-.18-.06-.04-.13-.05-.2-.03l-.18.06c-.09.03-.15.11-.15.21v.05c-.11.02-.19.11-.19.22v.15c0,.11.08.2.19.22Z"/>
</svg>