<svg id="_圖層_1-2" xmlns="http://www.w3.org/2000/svg" width="108" height="29.567" viewBox="0 0 108 29.567">
  <g id="组_3" data-name="组 3" transform="translate(33.491)">
    <path id="路径_1" data-name="路径 1" d="M316.572,32.86a.615.615,0,0,0-.434.166.538.538,0,0,0-.178.407.528.528,0,0,0,.181.406.609.609,0,0,0,.432.169.621.621,0,0,0,.436-.169.549.549,0,0,0,0-.813.614.614,0,0,0-.438-.166Z" transform="translate(-305.395 -28.278)" fill="#fff"/>
    <path id="路径_2" data-name="路径 2" d="M309.36,0H245.511a5.128,5.128,0,0,0-5.321,4.91,5.128,5.128,0,0,0,5.321,4.91H309.36a5.129,5.129,0,0,0,5.321-4.91A5.129,5.129,0,0,0,309.36,0ZM310.8,1.841l-.029,3.243h-1.51l-.089-3.243h1.63ZM247.586,7.067h-1.728v-2.9L244.2,1.841h1.753l.749,1.076.8-1.076h1.719l-1.643,2.324v2.9Zm5.363-.5a2.425,2.425,0,0,1-3.154,0,1.842,1.842,0,0,1,0-2.818,2.368,2.368,0,0,1,1.616-.573,2.225,2.225,0,0,1,1.546.584,1.846,1.846,0,0,1-.008,2.81Zm5.1-1.129a1.643,1.643,0,0,1-.549,1.254,2.057,2.057,0,0,1-2.8-.082,1.815,1.815,0,0,1-.429-1.287V3.3h1.591V5.459c0,.218.1.325.3.325s.3-.109.3-.325V3.3h1.591V5.432Zm3.254-.689a.681.681,0,0,0-.3-.084q-.433,0-.434.6V7.068h-1.591V4.981a1.763,1.763,0,0,1,.5-1.319,1.832,1.832,0,0,1,1.34-.492,3.661,3.661,0,0,1,.485.042V4.742Zm6.779,1.934a2.312,2.312,0,0,1-1.534.52,2.761,2.761,0,0,1-2.008-.807,2.648,2.648,0,0,1-.825-1.969,2.522,2.522,0,0,1,.841-1.937,2.983,2.983,0,0,1,2.1-.774,3.347,3.347,0,0,1,.952.158V3.423a1.944,1.944,0,0,0-.745-.173,1.447,1.447,0,0,0-.993.34,1.125,1.125,0,0,0-.385.884,1.144,1.144,0,0,0,.357.881,1.378,1.378,0,0,0,.966.325c.258,0,.388-.067.388-.2,0-.1-.085-.153-.255-.153h-.413V4.137h1.647a1.858,1.858,0,0,1,.531,1.252,1.614,1.614,0,0,1-.623,1.287Zm5.4.39h-1.591V5.3a.69.69,0,0,0-.163-.482.567.567,0,0,0-.441-.18.623.623,0,0,0-.434.165.525.525,0,0,0-.017.781.6.6,0,0,0,.421.153.794.794,0,0,0,.388-.1V7.118a2.272,2.272,0,0,1-.357.031,2.312,2.312,0,0,1-1.6-.566,1.822,1.822,0,0,1-.639-1.421,1.8,1.8,0,0,1,.644-1.41,2.267,2.267,0,0,1,1.567-.579,2.318,2.318,0,0,1,1.623.542,1.9,1.9,0,0,1,.594,1.479V7.068Zm6.747,0h-1.591V5.009a.681.681,0,0,0-.056-.329.212.212,0,0,0-.2-.092c-.178,0-.268.142-.268.425V7.069h-1.591V5.01a.678.678,0,0,0-.057-.329.219.219,0,0,0-.2-.092c-.176,0-.264.142-.264.425V7.071h-1.591V4.72a1.44,1.44,0,0,1,.481-1.093,1.644,1.644,0,0,1,1.166-.45,1.812,1.812,0,0,1,1.267.535,1.931,1.931,0,0,1,1.251-.535,1.658,1.658,0,0,1,1.276.52,1.675,1.675,0,0,1,.379,1.184V7.071Zm5.1-1.677h-2.412a.978.978,0,0,1-.056-.3.96.96,0,0,1,.077-.375h.809a.486.486,0,0,0-.531-.425.6.6,0,0,0-.485.227.888.888,0,0,0-.187.584.96.96,0,0,0,.181.6.574.574,0,0,0,.474.23.654.654,0,0,0,.459-.215l.906.98a2.387,2.387,0,0,1-1.408.448,2.3,2.3,0,0,1-1.587-.57,1.873,1.873,0,0,1,.006-2.829,2.311,2.311,0,0,1,1.594-.579,2.207,2.207,0,0,1,1.551.565,1.8,1.8,0,0,1,.627,1.392q0,.084-.017.268Zm6.6-.566a2.176,2.176,0,0,1-1.489.441l-.264,0V3.89q.523,0,.523-.36c0-.219-.134-.329-.4-.329s-.4.151-.4.452V7.069h-1.728V3.812a2.561,2.561,0,0,1,.113-.83,1.628,1.628,0,0,1,.385-.6,2.2,2.2,0,0,1,.765-.491,2.579,2.579,0,0,1,.948-.18,2.153,2.153,0,0,1,1.486.535,1.707,1.707,0,0,1,.6,1.329,1.564,1.564,0,0,1-.541,1.248Zm5.331,2.244H295.67V5.3a.69.69,0,0,0-.163-.482.567.567,0,0,0-.441-.18.623.623,0,0,0-.434.165.525.525,0,0,0-.017.781.6.6,0,0,0,.421.153.794.794,0,0,0,.388-.1V7.118a2.272,2.272,0,0,1-.357.031,2.312,2.312,0,0,1-1.6-.566,1.822,1.822,0,0,1-.639-1.421,1.8,1.8,0,0,1,.644-1.41,2.267,2.267,0,0,1,1.567-.579,2.318,2.318,0,0,1,1.623.542,1.9,1.9,0,0,1,.594,1.479V7.068Zm3.254-2.324a.681.681,0,0,0-.3-.084c-.29,0-.434.2-.434.6V7.068h-1.591V4.981a1.763,1.763,0,0,1,.5-1.319,1.832,1.832,0,0,1,1.34-.492,3.642,3.642,0,0,1,.485.042V4.742Zm2.63,2.377-.183,0a2.361,2.361,0,0,1-1.019-.226,2.013,2.013,0,0,1-.768-.612,2.147,2.147,0,0,1-.365-1.309V1.841H302.4V3.3h.715V4.816H302.4a.934.934,0,0,0,.159.627.785.785,0,0,0,.586.173v1.5Zm4.5-.463a2.061,2.061,0,0,1-.6,1.539,2.368,2.368,0,0,1-1.719.7,2.666,2.666,0,0,1-.881-.153V7.5a1.623,1.623,0,0,0,.566.123.971.971,0,0,0,1-.785,1.733,1.733,0,0,1-.817.222,1.3,1.3,0,0,1-.975-.4,1.393,1.393,0,0,1-.383-1.01V3.25h1.591V5.3c0,.227.1.34.315.34s.3-.125.3-.375V3.25h1.591V6.658Zm3.059.251a1.132,1.132,0,0,1-1.44.007.873.873,0,0,1,.011-1.3,1.082,1.082,0,0,1,1.428.006.847.847,0,0,1,.3.647.816.816,0,0,1-.3.637Z" transform="translate(-240.19)" fill="#fff"/>
  </g>
  <path id="路径_3" data-name="路径 3" d="M670.353,74.62l-9.9,7.49,1.723,1.159-3.7,3.954,8.6-4.519-2.436-1.574Z" transform="translate(-566.664 -64.215)" fill="#fff"/>
  <g id="组_4" data-name="组 4" transform="translate(0 1.601)">
    <path id="路径_4" data-name="路径 4" d="M14.779,30.222a2.731,2.731,0,0,1-1.033-2.529V11.48H0V28.993A8.039,8.039,0,0,0,4.2,36.18q4.2,2.589,11.714,2.589H19.57V30.852h-.711a8.813,8.813,0,0,1-4.08-.629Z" transform="translate(0 -11.48)" fill="#fff"/>
    <path id="路径_5" data-name="路径 5" d="M173.756,91.059q-2.322-1.508-7.167-1.509a15.564,15.564,0,0,0-7.8,1.663,5.183,5.183,0,0,0-2.776,4.667v10.346h8.2v-3.875h2.363v-4.29h-2.363V96.034q0-1.692,1.917-1.693a1.97,1.97,0,0,1,1.372.37,1.8,1.8,0,0,1,.385,1.322v10.191h8.2V95.71a5.163,5.163,0,0,0-2.322-4.654Z" transform="translate(-134.257 -78.664)" fill="#fff"/>
    <path id="路径_6" data-name="路径 6" d="M333.887,97.107h-7.814v3.7h1.96c.8,0,1.21.16,1.21.477q0,.632-1.838.632a8.893,8.893,0,0,1-4.582-1.014,3.024,3.024,0,0,1,.13-5.494,9.317,9.317,0,0,1,4.714-1.061,13.324,13.324,0,0,1,3.535.537v-4.84a23.68,23.68,0,0,0-4.523-.489,18.99,18.99,0,0,0-9.964,2.408q-3.984,2.407-3.985,6.031c0,2.415,1.305,4.451,3.917,6.127a17.272,17.272,0,0,0,9.529,2.515,14.992,14.992,0,0,0,7.279-1.62q2.957-1.621,2.957-4.006,0-2.052-2.522-3.9Z" transform="translate(-269.124 -78.664)" fill="#fff"/>
    <path id="路径_7" data-name="路径 7" d="M493.84,93.757a3.989,3.989,0,0,0-2.27,3.624v6.378a4.017,4.017,0,0,0,2.4,3.7,15.065,15.065,0,0,0,6.944,1.281h6.442v-4.649h-5.513a6.982,6.982,0,0,1-1.9-.162.647.647,0,0,1-.463-.673.66.66,0,0,1,.452-.644,4.41,4.41,0,0,1,1.545-.19h5.35V98.8h-4.522a5.936,5.936,0,0,1-1.8-.184.672.672,0,0,1-.506-.662q0-.809,2.121-.81h5.23V92.47H500.23A13.093,13.093,0,0,0,493.84,93.757Z" transform="translate(-423.028 -81.177)" fill="#fff"/>
    <path id="路径_8" data-name="路径 8" d="M634.134,102.02q3.654-1.692,3.655-4.159c0-1.644-.983-2.943-2.946-3.993a6.73,6.73,0,0,0-1.659-.7l-1.873,2.7,3.271,2.28-7.532,3.277-6.821,2.872L624,99.21l-2.312-1.336,7.489-5.36q-.855-.054-1.792-.054H616.87v16.271h8.2V105.79l2.234-.955,2.956,3.9h8.6l-4.724-6.711Z" transform="translate(-530.856 -81.169)" fill="#fff"/>
  </g>
</svg>
