<svg id="Layer_1" xmlns="http://www.w3.org/2000/svg" width="147" height="50" viewBox="0 0 147 50">
  <g id="组_17" data-name="组 17">
    <path id="路径_42" data-name="路径 42" d="M25.49,31.361a17.164,17.164,0,0,0,7.555-14.318A16.789,16.789,0,0,0,16.522,0H1.163A1.152,1.152,0,0,0,0,1.139V48.859A1.152,1.152,0,0,0,1.163,50H5.672a1.588,1.588,0,0,1,1.21-1.3,2.461,2.461,0,0,1-.189-1.222,2.538,2.538,0,0,1,2.338-2.25,2.615,2.615,0,0,1,1.09.144L12.96,27.3l2.824,17.982a1.427,1.427,0,0,1,.936-.349,1.4,1.4,0,0,1,1.417,1.388v.011c.085-.007.172-.011.259-.011A3.016,3.016,0,0,1,21.4,50h9.929a1.142,1.142,0,0,0,1.081-1.561L25.493,31.361ZM10.116,19.2l-1.68-.3L9.3,17.373l1.01-.1-.2,1.925Zm4.7,3.088A21.625,21.625,0,0,1,13,24.9a26.154,26.154,0,0,1-.914-3.123c.027-.386.345-1.238,1.672-1S14.886,21.915,14.817,22.286Zm-4.007-2.761.4-4.415a9.887,9.887,0,0,1,.107-1.179l0-.048h0c.011-.074.025-.151.038-.227.586-3.191,2.643-5.5,4.593-5.157s3.056,3.211,2.469,6.4c-.013.076-.029.151-.045.227h0l-.013.046a9.338,9.338,0,0,1-.319,1.141L16.863,20.59l-6.053-1.067Zm6.793.989.5-1.87.912.439.267,1.729-1.68-.3Z" fill="#e95389"/>
    <path id="路径_43" data-name="路径 43" d="M62.209,51.057A1.655,1.655,0,0,0,60.3,52.386a1.628,1.628,0,0,0,1.357,1.873,1.655,1.655,0,0,0,1.912-1.329A1.628,1.628,0,0,0,62.209,51.057Z" transform="translate(-46.84 -39.895)" fill="#e95389"/>
  </g>
  <g id="组_19" data-name="组 19" transform="translate(36.844 0.02)">
    <path id="路径_44" data-name="路径 44" d="M174.713,15.043h-1.005a.59.59,0,0,0-.325.1l-.207.133V2.118A2.05,2.05,0,0,0,171.1.09h0a2.05,2.05,0,0,0-2.071,2.028v15.83l-1.763,1.139a.59.59,0,0,1-.325.1h-.9a.584.584,0,0,0-.591.578V23.93a.584.584,0,0,0,.591.578h.9a.59.59,0,0,0,.325-.1l1.763-1.139v6H166a.584.584,0,0,0-.591.624c.218,2.562,1.756,4.548,3.62,4.548h3.548a.584.584,0,0,0,.591-.578V20.6l.207-.133a.59.59,0,0,1,.325-.1h1.005a.584.584,0,0,0,.591-.578V15.621a.584.584,0,0,0-.591-.578Z" transform="translate(-165.388 -0.09)" fill="#4d4d4d"/>
    <g id="组_18" data-name="组 18" transform="translate(9.684)">
      <path id="路径_45" data-name="路径 45" d="M226.791,1.616h-8.246L218.736.8a.583.583,0,0,0-.577-.709h-3.221a.589.589,0,0,0-.577.45l-2,8.5a.583.583,0,0,0,.577.709h3.221a.558.558,0,0,0,.06,0c.018,0,.033,0,.051,0h4.714a.636.636,0,0,0,.644-.631V7.845a.636.636,0,0,0-.644-.631h-3.755l.254-1.08H223.1l-.022,2.916a4.706,4.706,0,0,1-1.449,3.52V11.413a.584.584,0,0,0-.591-.578H213.67a.584.584,0,0,0-.591.578v1.379a.584.584,0,0,0,.591.578h6.911a14.638,14.638,0,0,1-6.918,1.646.585.585,0,0,0-.584.578v3.06a.589.589,0,0,0,.6.581c12.107-.2,13.7-6.408,13.7-8.972V2.194a.584.584,0,0,0-.591-.578Z" transform="translate(-211.544 -0.09)" fill="#4d4d4d"/>
      <path id="路径_46" data-name="路径 46" d="M224.007,100.413h-2.465a.584.584,0,0,0-.591.578v.928h-2.2V99.492h1.64a.584.584,0,0,0,.591-.578V97.535a.584.584,0,0,0-.591-.578h-1.64V95.494h4.259a.584.584,0,0,0,.591-.578V93.536a.584.584,0,0,0-.591-.578h-8.937l.018-.079a.583.583,0,0,0-.577-.709h-3.053a.589.589,0,0,0-.577.45l-.508,2.167a.583.583,0,0,0,.577.709h4.658v1.462h-1.582a.584.584,0,0,0-.591.578v1.379a.584.584,0,0,0,.591.578h1.582v2.427h-2.2v-.928a.584.584,0,0,0-.591-.578h-2.465a.584.584,0,0,0-.591.578v.271c0,2.857,1.634,5.173,3.646,5.173h8.545c2.015,0,3.646-2.316,3.646-5.173v-.271a.584.584,0,0,0-.591-.578Z" transform="translate(-208.76 -72.073)" fill="#4d4d4d"/>
    </g>
    <rect id="矩形_8" data-name="矩形 8" width="9.916" height="4.518" rx="2.259" transform="translate(0 7.781)" fill="#e95389"/>
  </g>
  <g id="组_21" data-name="组 21" transform="translate(93.269 0.022)">
    <path id="路径_47" data-name="路径 47" d="M443.409,28.242h-1.877a.6.6,0,0,1-.461-.216l-5.661-6.895V.678A.584.584,0,0,0,434.819.1H427.66a.584.584,0,0,0-.591.578V21.131l-5.661,6.895a.591.591,0,0,1-.461.216h-1.877a.584.584,0,0,0-.591.578v5.059a.584.584,0,0,0,.591.578h7.774a.6.6,0,0,0,.457-.212l3.938-4.708,3.938,4.708a.592.592,0,0,0,.457.212h7.774a.584.584,0,0,0,.591-.578V28.82a.584.584,0,0,0-.591-.578Z" transform="translate(-418.48 -0.1)" fill="#4d4d4d"/>
    <g id="组_20" data-name="组 20" transform="translate(0.771 4.369)">
      <path id="路径_48" data-name="路径 48" d="M428.314,35l-3.57-2.992a7.552,7.552,0,0,1-2.8-5.777V20.768a.694.694,0,0,1,.731-.648h4.914a.694.694,0,0,1,.731.648V35Z" transform="translate(-421.94 -20.12)" fill="#e95389"/>
      <path id="路径_49" data-name="路径 49" d="M500.9,35l3.57-2.992a7.551,7.551,0,0,0,2.8-5.777V20.768a.694.694,0,0,0-.731-.648h-4.914a.694.694,0,0,0-.731.648V35Z" transform="translate(-483.302 -20.12)" fill="#e95389"/>
    </g>
  </g>
  <g id="组_24" data-name="组 24" transform="translate(121.478 0.022)">
    <g id="组_22" data-name="组 22" transform="translate(0)">
      <path id="路径_50" data-name="路径 50" d="M556.7,2.04h-3.628V.678A.584.584,0,0,0,552.485.1h-2.946a.6.6,0,0,0-.461.216l-3.9,4.745a.571.571,0,0,0-.131.362v2.73a.584.584,0,0,0,.591.578h2.367a.6.6,0,0,0,.428-.179l1.6-1.643,1.319,1.606a.591.591,0,0,0,.461.216h2.2a.584.584,0,0,0,.591-.578V6.148h2.1a.584.584,0,0,0,.591-.578V2.619a.584.584,0,0,0-.591-.578Z" transform="translate(-545.05 -0.1)" fill="#e95389"/>
      <path id="路径_51" data-name="路径 51" d="M616.274,2.04h-3.628V.678A.584.584,0,0,0,612.055.1h-2.946a.6.6,0,0,0-.461.216l-3.9,4.745a.571.571,0,0,0-.132.362v2.73a.584.584,0,0,0,.591.578h2.367a.6.6,0,0,0,.428-.179l1.6-1.643,1.319,1.606a.591.591,0,0,0,.461.216h2.2a.584.584,0,0,0,.591-.578V6.148h2.1a.584.584,0,0,0,.591-.578V2.619a.584.584,0,0,0-.591-.578Z" transform="translate(-591.343 -0.1)" fill="#e95389"/>
    </g>
    <g id="组_23" data-name="组 23" transform="translate(0 9.4)">
      <path id="路径_52" data-name="路径 52" d="M569.989,45.014H564.3V43.748a.584.584,0,0,0-.591-.578h-2.2a.6.6,0,0,0-.461.216l-1.337,1.628h-3.789l-1.337-1.628a.591.591,0,0,0-.461-.216h-2.2a.584.584,0,0,0-.591.578v1.266h-5.69a.584.584,0,0,0-.591.578v3.359a.584.584,0,0,0,.591.578h24.338a.584.584,0,0,0,.591-.578V45.593A.584.584,0,0,0,569.989,45.014Z" transform="translate(-545.058 -43.17)" fill="#4d4d4d"/>
      <path id="路径_53" data-name="路径 53" d="M557.649,77.242H546.871a.584.584,0,0,0-.591.578V88.484a.571.571,0,0,1-.132.362l-.967,1.179a.571.571,0,0,0-.131.362v3.8a.584.584,0,0,0,.591.578h2.008a.593.593,0,0,0,.428-.181l2.182-2.248a.571.571,0,0,0,.163-.4V89.29H554.1v1.342H551.68a.464.464,0,0,0-.47.5c.174,2.045,1.4,3.632,2.891,3.632h3.557a.576.576,0,0,0,.582-.57V81.177h0V77.818a.584.584,0,0,0-.591-.578ZM554.1,86.754h-3.682V85.505H554.1v1.246Zm0-3.787h-3.682V81.758H554.1Z" transform="translate(-545.05 -69.804)" fill="#4d4d4d"/>
      <path id="路径_54" data-name="路径 54" d="M618,77.709a.446.446,0,0,0-.47-.419H614.37a.446.446,0,0,0-.47.419v5.535a4.864,4.864,0,0,0,1.805,3.719L618,88.89Z" transform="translate(-598.555 -69.843)" fill="#4d4d4d"/>
      <path id="路径_55" data-name="路径 55" d="M630.18,77.25h-2.958a.584.584,0,0,0-.591.578V90.642h-2.418a.464.464,0,0,0-.47.5c.174,2.045,1.4,3.632,2.891,3.632h3.548a.584.584,0,0,0,.591-.578V77.828a.584.584,0,0,0-.591-.578Z" transform="translate(-606.203 -69.812)" fill="#4d4d4d"/>
    </g>
  </g>
  <g id="组_27" data-name="组 27" transform="translate(65.278 0.02)">
    <g id="组_25" data-name="组 25">
      <path id="路径_56" data-name="路径 56" d="M305.9,5.012c-.02-2.728-1.366-4.933-3.009-4.922s-2.96,2.233-2.94,4.961c0,.065,0,.129,0,.194h0l0,.039a7.858,7.858,0,0,0,.1.991l.359,3.715,5.1-.035.308-3.719a8.369,8.369,0,0,0,.082-.993V5.2h0V5.009Zm-2.953.823A1.421,1.421,0,1,1,304.4,4.413,1.436,1.436,0,0,1,302.945,5.834Z" transform="translate(-298.376 -0.09)" fill="#e95389"/>
      <path id="路径_57" data-name="路径 57" d="M293.358,36.954l-.468,1.375,1.415-.011-.138-1.6Z" transform="translate(-292.89 -28.725)" fill="#e95389"/>
      <path id="路径_58" data-name="路径 58" d="M328.477,36.73l-.811-.22-.116,1.6,1.415-.009Z" transform="translate(-319.825 -28.561)" fill="#e95389"/>
      <path id="路径_59" data-name="路径 59" d="M309.446,47.412c-1.119.007-1.244.749-1.206,1.067a21.819,21.819,0,0,0,1.23,2.41,17.694,17.694,0,0,0,1.072-2.4c0-.312.022-1.087-1.1-1.08Z" transform="translate(-304.815 -37.082)" fill="#e95389"/>
    </g>
    <g id="组_26" data-name="组 26" transform="translate(9.985 0.002)">
      <path id="路径_60" data-name="路径 60" d="M338.423,6.643H341.2l-1.438,1.75a.591.591,0,0,1-.461.216h-.791a.584.584,0,0,0-.591.578v2.737a.584.584,0,0,0,.591.578h2.806a.6.6,0,0,0,.457-.212l3.437-4.108a.568.568,0,0,0,.134-.367V6.643h.624v5.282a.584.584,0,0,0,.591.578h3.548c1.489,0,2.717-1.587,2.891-3.632a.466.466,0,0,0-.47-.5h-2.418V6.643h2.042a.724.724,0,0,0,.731-.716V2.843a.724.724,0,0,0-.731-.716h-4.52a2.071,2.071,0,0,0-4.141,0h-5.07a.724.724,0,0,0-.731.716V5.927a.724.724,0,0,0,.731.716Z" transform="translate(-337.69 -0.1)" fill="#4d4d4d"/>
      <path id="路径_61" data-name="路径 61" d="M352.311,71.578h-2.2a.6.6,0,0,0-.461.216l-1.273,1.552-1.005-1.224V71h4.937a.584.584,0,0,0,.591-.578V64.388h0v-1.96a.584.584,0,0,0-.591-.578H338.3a.584.584,0,0,0-.591.578v7.992A.584.584,0,0,0,338.3,71h4.937v1.122l-3.684,4.485a.591.591,0,0,1-.461.216H338.3a.584.584,0,0,0-.591.578v4.1a.584.584,0,0,0,.591.578h2.806a.6.6,0,0,0,.457-.212l1.672-2v2.287a.584.584,0,0,0,.591.578h2.958a.584.584,0,0,0,.591-.578V79.867l1.672,2a.592.592,0,0,0,.457.212h2.806a.584.584,0,0,0,.591-.578V77.4a.584.584,0,0,0-.591-.578h-.822l1.279-1.53a.568.568,0,0,0,.134-.367V72.158a.584.584,0,0,0-.591-.578ZM341.847,65.9v-.936a.584.584,0,0,1,.591-.578h5.732a.584.584,0,0,1,.591.578V65.9a.584.584,0,0,1-.591.578h-5.732A.584.584,0,0,1,341.847,65.9Z" transform="translate(-337.706 -48.373)" fill="#4d4d4d"/>
    </g>
    <path id="路径_62" data-name="路径 62" d="M298.479,98.88l-4.279,12.8h8.556Z" transform="translate(-293.908 -77.319)" fill="#e95389"/>
    <path id="路径_63" data-name="路径 63" d="M304.463,77.25,301.9,84.913h5.124Z" transform="translate(-299.892 -60.409)" fill="#e95389"/>
  </g>
  <g id="组_28" data-name="组 28" transform="translate(36.861 37.869)">
    <path id="路径_64" data-name="路径 64" d="M173.269,173.512v7.715h-1.126v1.1h1.126v3.307h-3.377v-1.1h-1.126v1.1H165.39V173.51h7.879Zm-3.377,6.613v-3.307h-1.126v3.307Z" transform="translate(-165.39 -173.51)" fill="#ee86a1"/>
    <path id="路径_65" data-name="路径 65" d="M213.669,178.58V189.6H205.79V178.58Zm-3.377,3.307h-1.126V186.3h1.126Z" transform="translate(-196.786 -177.473)" fill="#ee86a1"/>
    <path id="路径_66" data-name="路径 66" d="M254.069,178.572v4.409h-3.377v-1.1h-1.126v4.409h1.126v-2.2h3.377v5.511H246.19V178.57h7.879Z" transform="translate(-228.182 -177.466)" fill="#ee86a1"/>
    <path id="路径_67" data-name="路径 67" d="M294.479,175.727v4.409h-1.126v1.1h1.126v4.409H291.1v-2.2h-1.126v2.2H286.6V173.52h3.377v4.409H291.1v-2.2h3.377Z" transform="translate(-259.585 -173.518)" fill="#ee86a1"/>
    <path id="路径_68" data-name="路径 68" d="M334.879,173.512v7.715h-4.5v1.1h4.5v3.307H327V173.51h7.879Zm-3.377,3.307h-1.126v1.1H331.5Z" transform="translate(-290.981 -173.51)" fill="#ee86a1"/>
    <path id="路径_69" data-name="路径 69" d="M375.289,175.727v3.307h-4.5v3.307h1.125v-2.2h3.377v5.511H367.41V173.52h3.377v2.2h4.5Z" transform="translate(-322.385 -173.518)" fill="#ee86a1"/>
    <path id="路径_70" data-name="路径 70" d="M445.989,173.512v3.307h-4.5v5.511h1.126v-4.409h3.377v7.715H438.11V173.51h7.879Z" transform="translate(-377.327 -173.51)" fill="#ee86a1"/>
    <path id="路径_71" data-name="路径 71" d="M486.4,173.52v12.126H478.52v-7.715h4.5v-1.1h-3.377v-3.307H486.4Zm-3.377,7.715H481.9v1.1h1.126Z" transform="translate(-408.731 -173.518)" fill="#ee86a1"/>
    <path id="路径_72" data-name="路径 72" d="M531.3,178.58V189.6h-3.377v-7.715H526.8V189.6h-3.377v-7.715H522.3V189.6H518.92V178.58H531.3Z" transform="translate(-440.127 -177.473)" fill="#ee86a1"/>
    <path id="路径_73" data-name="路径 73" d="M587.409,173.512v7.715h-4.5v1.1h4.5v3.307H579.53V173.51h7.879Zm-3.377,3.307h-1.126v1.1h1.126Z" transform="translate(-487.228 -173.51)" fill="#ee86a1"/>
    <path id="路径_74" data-name="路径 74" d="M627.809,173.52v3.307h-4.5v1.1h4.5v7.715H619.93v-3.307h4.5v-1.1h-4.5V173.52Z" transform="translate(-518.624 -173.518)" fill="#ee86a1"/>
  </g>
</svg>
