<svg id="mem_icon3" xmlns="http://www.w3.org/2000/svg" xmlns:xlink="http://www.w3.org/1999/xlink" width="17.225" height="14.923" viewBox="0 0 17.225 14.923">
  <defs>
    <clipPath id="clip-path">
      <rect id="矩形_42" data-name="矩形 42" width="17.225" height="14.923" fill="#4d4d4d"/>
    </clipPath>
  </defs>
  <g id="组_51" data-name="组 51" clip-path="url(#clip-path)">
    <path id="路径_103" data-name="路径 103" d="M14.761,48.916a4.425,4.425,0,0,1-2.837-1.509c-.957-.856-1.861-1.664-3.265-1.564l-.047,0-.047,0c-1.4-.1-2.307.708-3.265,1.564-.911.815-1.853,1.657-3.177,1.487A2.214,2.214,0,0,1,.477,47.93c-.867-1.3-.466-3.622.519-7.184a4.714,4.714,0,0,1,2.085-3.087,4.01,4.01,0,0,1,3.178-.069L6.3,37.6a11.019,11.019,0,0,0,2.315.3,11.019,11.019,0,0,0,2.315-.3l.038-.012a4.01,4.01,0,0,1,3.178.069,4.715,4.715,0,0,1,2.085,3.087c.985,3.562,1.386,5.879.519,7.184a2.214,2.214,0,0,1-1.647.964,2.665,2.665,0,0,1-.34.022M8.895,44.509a5.791,5.791,0,0,1,3.913,1.91c.869.777,1.437,1.249,2.125,1.161a.893.893,0,0,0,.712-.383c.617-.928.032-3.478-.692-6.1a3.5,3.5,0,0,0-1.438-2.274,2.757,2.757,0,0,0-2.143.027l-.039.013a12.537,12.537,0,0,1-2.7.362H8.594a12.537,12.537,0,0,1-2.7-.362l-.039-.013a2.756,2.756,0,0,0-2.143-.027A3.5,3.5,0,0,0,2.273,41.1c-.724,2.618-1.309,5.169-.692,6.1a.893.893,0,0,0,.712.383c.688.088,1.256-.384,2.125-1.161a5.616,5.616,0,0,1,4.195-1.9q.143-.009.282-.009" transform="translate(0 -33.993)" fill="#4d4d4d"/>
    <path id="路径_104" data-name="路径 104" d="M37.678,72h-.53v-.53a.707.707,0,0,0-1.413,0V72H35.2a.707.707,0,1,0,0,1.413h.53v.53a.707.707,0,0,0,1.413,0v-.53h.53a.707.707,0,1,0,0-1.413" transform="translate(-31.451 -64.51)" fill="#4d4d4d"/>
    <path id="路径_105" data-name="路径 105" d="M129,67.512a.751.751,0,1,1-.751-.751.751.751,0,0,1,.751.751" transform="translate(-116.235 -60.864)" fill="#4d4d4d"/>
    <path id="路径_106" data-name="路径 106" d="M129,99.512a.751.751,0,1,1-.751-.751.751.751,0,0,1,.751.751" transform="translate(-116.235 -90.037)" fill="#4d4d4d"/>
    <path id="路径_107" data-name="路径 107" d="M113.5,84.262a.751.751,0,1,1-.751-.751.751.751,0,0,1,.751.751" transform="translate(-102.105 -76.134)" fill="#4d4d4d"/>
    <path id="路径_108" data-name="路径 108" d="M145,84.262a.751.751,0,1,1-.751-.751.751.751,0,0,1,.751.751" transform="translate(-130.822 -76.134)" fill="#4d4d4d"/>
    <path id="路径_109" data-name="路径 109" d="M94.39,0a1.989,1.989,0,0,0-1.607.642,1.906,1.906,0,0,0-.4,1.406V4.465a.663.663,0,1,0,1.325,0V1.941L93.7,1.9a.6.6,0,0,1,.1-.407.861.861,0,0,1,.592-.169A.663.663,0,0,0,94.39,0" transform="translate(-84.212)" fill="#4d4d4d"/>
  </g>
</svg>
