<svg xmlns="http://www.w3.org/2000/svg" xmlns:xlink="http://www.w3.org/1999/xlink" width="17.225" height="14.729" viewBox="0 0 17.225 14.729">
  <defs>
    <clipPath id="clip-path">
      <rect id="矩形_43" data-name="矩形 43" width="17.225" height="14.729" fill="#4d4d4d"/>
    </clipPath>
  </defs>
  <g id="mem_icon4" transform="translate(0 -2)">
    <g id="组_53" data-name="组 53" transform="translate(0 2)" clip-path="url(#clip-path)">
      <path id="路径_110" data-name="路径 110" d="M14.268,0H2.957A2.961,2.961,0,0,0,0,2.957v8.815a2.961,2.961,0,0,0,2.957,2.957h11.31a2.961,2.961,0,0,0,2.957-2.957V2.957A2.961,2.961,0,0,0,14.268,0M2.957,1.468h11.31a1.49,1.49,0,0,1,1.326.814L8.661,8.133l-7-5.908a1.49,1.49,0,0,1,1.3-.757m11.31,11.793H2.957a1.491,1.491,0,0,1-1.489-1.489V3.982l6.72,5.673a.734.734,0,0,0,.947,0l6.622-5.59v7.707a1.491,1.491,0,0,1-1.489,1.489" fill="#4d4d4d"/>
    </g>
  </g>
</svg>
