<svg id="mem_icon7" xmlns="http://www.w3.org/2000/svg" xmlns:xlink="http://www.w3.org/1999/xlink" width="15.825" height="14.205" viewBox="0 0 15.825 14.205">
  <defs>
    <clipPath id="clip-path">
      <rect id="矩形_47" data-name="矩形 47" width="15.825" height="14.205" fill="#4d4d4d"/>
    </clipPath>
  </defs>
  <g id="组_65" data-name="组 65" clip-path="url(#clip-path)">
    <path id="路径_116" data-name="路径 116" d="M15.687,5.718A7.1,7.1,0,0,0,7.751.074,6.959,6.959,0,0,0,2.087,4.484c-.021.048-.046.1-.08.166-.182-.353-.344-.685-.523-1.007A.78.78,0,0,0,.43,3.324.767.767,0,0,0,.081,4.351q.792,1.577,1.612,3.14A.755.755,0,0,0,2.734,7.8q1.423-.792,2.829-1.614a.766.766,0,0,0,.268-1.052.787.787,0,0,0-1.06-.3c-.191.1-.376.212-.564.318l-.829.47c.023-.09.033-.143.049-.194A5.534,5.534,0,1,1,9.158,12.6,5.447,5.447,0,0,1,3.941,9.922a1.189,1.189,0,0,0-.22-.27A.778.778,0,0,0,2.7,9.668a.794.794,0,0,0-.139,1.025A7.12,7.12,0,0,0,15.687,5.718" transform="translate(0 0)" fill="#4d4d4d"/>
    <path id="路径_117" data-name="路径 117" d="M86.638,34.731a.792.792,0,1,0-1.582.016c0,.511,0,1.023,0,1.534s0,1.035,0,1.552a.752.752,0,0,0,.209.556q1.207,1.213,2.423,2.417a.731.731,0,0,0,.757.174.782.782,0,0,0,.323-1.32q-.987-1-1.991-1.986a.429.429,0,0,1-.137-.339c.005-.869.007-1.737,0-2.606" transform="translate(-77.143 -30.758)" fill="#4d4d4d"/>
  </g>
</svg>
