<svg id="mem_icon6" xmlns="http://www.w3.org/2000/svg" xmlns:xlink="http://www.w3.org/1999/xlink" width="16" height="16" viewBox="0 0 16 16">
  <defs>
    <clipPath id="clip-path">
      <rect id="矩形_46" data-name="矩形 46" width="16" height="16" fill="#4d4d4d"/>
    </clipPath>
  </defs>
  <g id="组_63" data-name="组 63" clip-path="url(#clip-path)">
    <path id="路径_114" data-name="路径 114" d="M8,0a8,8,0,1,0,8,8A8.009,8.009,0,0,0,8,0M8,14.554A6.554,6.554,0,1,1,14.554,8,6.562,6.562,0,0,1,8,14.554" fill="#4d4d4d"/>
    <path id="路径_115" data-name="路径 115" d="M51.918,37.45l0,0a3.2,3.2,0,0,0-1.756-.467H50V35.337h2.323a.241.241,0,0,0,.241-.241v-.978a.241.241,0,0,0-.241-.241H50V33.33a.241.241,0,0,0-.241-.241H48.77a.241.241,0,0,0-.241.241v.547h-.208a3.158,3.158,0,0,0-1.648.422,1.983,1.983,0,0,0-1.007,1.834,2.059,2.059,0,0,0,.912,1.775,3.267,3.267,0,0,0,1.893.532h.058v2.072H46.117a.241.241,0,0,0-.241.241v.978a.241.241,0,0,0,.241.241H48.53v.547a.241.241,0,0,0,.241.241h.988A.241.241,0,0,0,50,42.519v-.547h.028c1.861,0,2.845-.908,2.845-2.626a2.144,2.144,0,0,0-.955-1.9m-.871,2.856a1.911,1.911,0,0,1-1.02.206H50V38.44h.158c1.1,0,1.246.484,1.246.906a1.12,1.12,0,0,1-.356.96m-3.615-4.767a1.667,1.667,0,0,1,.889-.2h.208V36.98h-.058a1.757,1.757,0,0,1-1.032-.251.705.705,0,0,1-.313-.6.659.659,0,0,1,.307-.594" transform="translate(-41.264 -29.9)" fill="#4d4d4d"/>
  </g>
</svg>
