<svg id="mem_icon2" xmlns="http://www.w3.org/2000/svg" xmlns:xlink="http://www.w3.org/1999/xlink" width="17.225" height="14.729" viewBox="0 0 17.225 14.729">
  <defs>
    <clipPath id="clip-path">
      <rect id="矩形_37" data-name="矩形 37" width="17.225" height="14.729" fill="#4d4d4d"/>
    </clipPath>
  </defs>
  <g id="组_41" data-name="组 41" clip-path="url(#clip-path)">
    <path id="路径_81" data-name="路径 81" d="M31.072,37.8a2.586,2.586,0,1,0-3.775,0A3.675,3.675,0,0,0,26,40.655a3.931,3.931,0,0,0,.1.863l.026.115h6.126l.026-.115a3.933,3.933,0,0,0,.1-.863,3.675,3.675,0,0,0-1.3-2.851m-.955-.466a1.6,1.6,0,0,1-1.865,0,1.6,1.6,0,1,1,1.865,0m-1.909,1.028a1.92,1.92,0,0,1,1.954,0,2.612,2.612,0,0,1,1.224,2.283h-4.4a2.612,2.612,0,0,1,1.223-2.283" transform="translate(-23.455 -30.176)" fill="#4d4d4d"/>
    <path id="路径_82" data-name="路径 82" d="M14.268,14.729H2.957A2.961,2.961,0,0,1,0,11.772V2.957A2.961,2.961,0,0,1,2.957,0h11.31a2.961,2.961,0,0,1,2.957,2.957v8.815a2.961,2.961,0,0,1-2.957,2.957M2.957,1.468A1.491,1.491,0,0,0,1.468,2.957v8.815a1.491,1.491,0,0,0,1.489,1.489h11.31a1.491,1.491,0,0,0,1.489-1.489V2.957a1.491,1.491,0,0,0-1.489-1.489Z" fill="#4d4d4d"/>
    <rect id="矩形_34" data-name="矩形 34" width="4.502" height="1.37" transform="translate(9.934 3.809)" fill="#4d4d4d"/>
    <rect id="矩形_35" data-name="矩形 35" width="4.502" height="1.37" transform="translate(9.934 6.696)" fill="#4d4d4d"/>
    <rect id="矩形_36" data-name="矩形 36" width="4.502" height="1.37" transform="translate(9.934 9.583)" fill="#4d4d4d"/>
  </g>
</svg>
