<svg xmlns="http://www.w3.org/2000/svg" xmlns:xlink="http://www.w3.org/1999/xlink" width="15.917" height="18.771" viewBox="0 0 15.917 18.771">
  <defs>
    <clipPath id="clip-path">
      <rect id="矩形_44" data-name="矩形 44" width="15.917" height="18.771" fill="#4d4d4d"/>
    </clipPath>
    <clipPath id="clip-path-2">
      <rect id="矩形_44-2" data-name="矩形 44" width="10.509" height="12.393" fill="#4d4d4d"/>
    </clipPath>
  </defs>
  <g id="mem_icon5" transform="translate(-398.308 -609.75)">
    <g id="组_59" data-name="组 59" transform="translate(398.308 609.75)">
      <g id="组_55" data-name="组 55" clip-path="url(#clip-path)">
        <path id="路径_111" data-name="路径 111" d="M7.959,18.771a.775.775,0,0,1-.447-.141c-.133-.074-.614-.321-.971-.5-.935-.479-1.246-.642-1.366-.724a13.4,13.4,0,0,1-2.193-1.849A10.5,10.5,0,0,1,.268,10.635a16.774,16.774,0,0,1-.25-4.124C.028,6.148.059,3.828.037,3.4A.779.779,0,0,1,.8,2.468,12.912,12.912,0,0,0,7.5.153a.779.779,0,0,1,.928,0,12.912,12.912,0,0,0,6.695,2.314.779.779,0,0,1,.763.932c-.022.428.009,2.747.018,3.112a16.776,16.776,0,0,1-.249,4.124,10.5,10.5,0,0,1-2.712,4.918A13.4,13.4,0,0,1,10.744,17.4c-.121.082-.431.244-1.367.724-.357.183-.839.43-.971.5a.775.775,0,0,1-.447.141M8.737,18a.778.778,0,0,1-.028.205A.77.77,0,0,0,8.737,18M7.18,18a.77.77,0,0,0,.028.205A.778.778,0,0,1,7.18,18m1.556,0h0Zm-1.556,0h0Zm1.556,0h0Zm-1.556,0h0ZM6.039,16.109c.124.075.777.41,1.211.632.261.134.514.263.708.365.195-.1.448-.231.708-.365.434-.223,1.087-.557,1.211-.632a11.836,11.836,0,0,0,1.931-1.628A8.95,8.95,0,0,0,14.13,10.3a15.531,15.531,0,0,0,.213-3.747h0c0-.133-.017-.937-.023-1.737,0-.319,0-.595,0-.822A14.494,14.494,0,0,1,7.959,1.72,14.492,14.492,0,0,1,1.6,3.992c0,.227,0,.5,0,.822-.006.8-.02,1.6-.023,1.737A15.521,15.521,0,0,0,1.788,10.3a8.949,8.949,0,0,0,2.32,4.182,11.835,11.835,0,0,0,1.931,1.628M15.864,3.466a.778.778,0,0,1-.747.558.774.774,0,0,0,.747-.558m-15.811,0A.774.774,0,0,0,.8,4.024a.779.779,0,0,1-.747-.558" transform="translate(0 -0.001)" fill="#4d4d4d"/>
      </g>
    </g>
    <g id="组_57" data-name="组 57" transform="translate(401.012 612.939)">
      <g id="组_55-2" data-name="组 55" clip-path="url(#clip-path-2)">
        <path id="路径_111-2" data-name="路径 111" d="M5.254,12.393a.511.511,0,0,1-.3-.093c-.088-.049-.405-.212-.641-.333-.617-.317-.822-.424-.9-.478a8.845,8.845,0,0,1-1.448-1.221A6.934,6.934,0,0,1,.177,7.022,11.075,11.075,0,0,1,.012,4.3c.006-.24.027-1.771.012-2.054a.514.514,0,0,1,.5-.615A8.525,8.525,0,0,0,4.949.1a.515.515,0,0,1,.612,0A8.525,8.525,0,0,0,9.981,1.63a.514.514,0,0,1,.5.615c-.015.283.006,1.814.012,2.054a11.076,11.076,0,0,1-.165,2.722,6.934,6.934,0,0,1-1.791,3.247A8.848,8.848,0,0,1,7.093,11.49c-.08.054-.285.161-.9.478-.236.121-.554.284-.641.333a.511.511,0,0,1-.3.093m.514-.512a.514.514,0,0,1-.018.135.509.509,0,0,0,.018-.135m-1.028,0a.509.509,0,0,0,.019.135.514.514,0,0,1-.019-.135m1.028,0h0Zm-1.028,0h0Zm1.028,0h0Zm-1.028,0h0Zm-.754-1.244c.082.049.513.271.8.417l.468.241.468-.241c.287-.147.718-.368.8-.417A7.814,7.814,0,0,0,7.8,9.561,5.909,5.909,0,0,0,9.329,6.8a10.254,10.254,0,0,0,.141-2.474h0c0-.088-.011-.618-.015-1.147,0-.211,0-.393,0-.543a9.569,9.569,0,0,1-4.2-1.5,9.568,9.568,0,0,1-4.2,1.5c0,.15,0,.332,0,.543,0,.528-.013,1.059-.015,1.147A10.247,10.247,0,0,0,1.18,6.8,5.909,5.909,0,0,0,2.712,9.561a7.814,7.814,0,0,0,1.275,1.075m6.487-8.347a.514.514,0,0,1-.493.369.511.511,0,0,0,.493-.369m-10.439,0a.511.511,0,0,0,.493.369.514.514,0,0,1-.493-.369" transform="translate(0 -0.001)" fill="#4d4d4d"/>
      </g>
    </g>
  </g>
</svg>
